<svg width="357" height="844" viewBox="0 0 357 844" fill="none" xmlns="http://www.w3.org/2000/svg">
<path d="M42.36 511.4C40.62 509.66 38.34 508.34 35.82 507.68C34.74 507.44 33.6 507.26 32.4 507.26L0 507.2V509.06C1.26 509.06 2.4 509.54 3.24 510.38C4.08 511.22 4.56 512.36 4.56 513.62V553.64C4.56 556.1 2.52 558.14 0 558.14V560H21.96V558.14C20.7 558.14 19.56 557.66 18.72 556.82C17.88 555.98 17.4 554.9 17.4 553.64V535.52H21.84C38.16 535.52 46.26 531.62 46.26 521.18C46.26 517.28 44.94 513.98 42.36 511.4ZM17.4 533.78V509.12H17.94C21.9 509.12 32.4 509.78 34.2 520.04C34.44 521.36 34.56 522.5 34.56 523.58C34.56 533.12 25.86 533.78 20.52 533.78H17.4ZM85.1297 543.02C86.7497 543.02 88.1297 541.64 88.1297 540.02C87.8297 529.46 79.2497 521 68.6297 521C57.8897 521 49.1297 529.7 49.1297 540.5C49.1297 541.34 49.1897 542.18 49.3097 543.02C50.5697 552.56 58.7297 560 68.6297 560C77.3297 560 83.3897 556.4 86.3897 550.28L85.6697 549.92C85.6697 549.92 83.8097 552.86 79.1297 554.6C77.8097 555.08 76.4897 555.32 75.1697 555.32C69.2297 555.32 63.3497 550.7 60.9497 543.02H85.1297ZM60.2897 541.16C59.5697 538.7 59.2697 536.18 59.2697 533.78C59.2697 528.74 60.8297 524.42 64.1897 523.34C65.0297 523.1 65.8097 522.92 66.5297 522.92C73.6097 522.92 76.6097 534.32 76.6097 539.9C76.6097 540.38 76.6097 540.8 76.5497 541.16H60.2897ZM136.676 521.06L136.496 521.12C130.796 522.32 124.976 522.92 119.156 522.92V524.78C121.736 524.78 123.776 526.82 123.776 529.34V553.52C123.776 556.1 121.736 558.14 119.156 558.14V560H141.296V558.14C138.716 558.14 136.676 556.1 136.676 553.58V521.06ZM110.096 536.96C110.096 532.94 113.876 516.08 123.896 512.06C123.776 512.48 123.776 512.9 123.776 513.26C123.776 516.86 126.656 519.74 130.256 519.74C133.736 519.74 136.556 516.98 136.676 513.5V512.96C136.616 510.8 135.656 509.3 134.336 508.28C133.256 507.38 131.816 506.84 130.256 506.84H129.536C119.036 506.84 111.776 520.7 110.096 529.46V521.06L109.856 521.12C104.216 522.32 98.3958 522.92 92.5758 522.92V524.78C95.0958 524.78 97.1358 526.82 97.1358 529.34V553.52C97.1358 556.1 95.0958 558.14 92.5758 558.14V560H114.656V558.14C112.136 558.14 110.096 556.1 110.096 553.58V536.96ZM163.842 521C153.042 521 144.342 529.7 144.342 540.5C144.342 551.24 153.042 560 163.842 560C174.582 560 183.342 551.24 183.342 540.5C183.342 529.7 174.582 521 163.842 521ZM170.742 556.76C170.322 556.94 169.962 557 169.482 557C165.822 557 160.602 551.36 157.182 543.32C155.262 538.7 154.242 534.26 154.242 530.78C154.242 527.48 155.142 525.08 156.882 524.3C157.302 524.12 157.662 524.06 158.142 524.06C161.802 524.06 167.022 529.7 170.442 537.68C172.422 542.3 173.382 546.86 173.382 550.34C173.382 553.64 172.542 555.98 170.742 556.76ZM229.81 507.2H229.57C223.93 508.4 218.17 509 212.41 509V510.86C214.93 510.86 216.97 512.9 216.97 515.42V524.9C215.53 523.28 211.75 520.76 206.11 520.76C193.87 520.76 189.67 533 189.67 542.06V542.96C190.09 554.78 196.63 560.54 204.61 560.54C207.91 560.54 210.49 559.52 212.41 558.2V558.14C215.23 556.22 216.61 553.64 216.97 552.8V560L217.15 559.94C222.79 558.74 228.55 558.14 234.31 558.14V556.34C231.79 556.34 229.81 554.3 229.81 551.78V507.2ZM213.07 555.02C212.47 555.26 211.87 555.32 211.27 555.32C205.81 555.32 202.57 546.08 202.57 537.56C202.57 530.42 204.91 523.82 210.13 523.82H210.43C213.79 524 216.01 525.98 216.97 527.48V549.68C216.85 551.6 215.05 554.3 213.07 555.02ZM41.52 601.58L40.62 591.2H0V593.06C0.36 593.06 0.66 593.06 0.96 593.12C1.8 593.3 2.58 593.72 3.24 594.38C4.02 595.16 4.56 596.3 4.56 597.56V637.58C4.56 640.1 2.52 642.14 0 642.14V644H21.96V642.14C20.7 642.14 19.56 641.66 18.72 640.82C17.88 639.98 17.4 638.84 17.4 637.58V617.6H28.2C30.6 617.6 32.52 619.52 32.52 621.86H34.32V611.48H32.52C32.52 612.68 32.04 613.76 31.26 614.48C30.48 615.26 29.4 615.74 28.2 615.74H17.4V593.06H31.14C35.88 593.06 39.72 596.84 39.72 601.58H41.52ZM71.6213 603.8C62.1413 603.8 59.5013 613.34 59.5013 615.2V605.06H59.3213C53.6213 606.26 47.8013 606.86 41.9813 606.86V608.72C44.5013 608.72 46.6013 610.76 46.6013 613.34V637.58C46.6013 640.1 44.5013 642.14 41.9813 642.14V644H64.1213V642.14C61.6013 642.14 59.5013 640.1 59.5013 637.58V623.78C59.5013 613.82 64.3013 609.74 67.1213 609.74C68.4413 609.74 69.4613 610.34 69.4613 612.5C69.4613 614.48 70.4813 617.36 74.0813 617.36C78.4613 617.36 79.6613 613.82 79.6613 611.66C79.6613 609.74 79.2413 603.8 71.6213 603.8ZM117.782 621.26C117.782 612.92 117.302 605 100.262 605H99.5419C96.5419 605 85.0219 605.6 85.0219 614.54C85.0219 616.46 86.2819 619.58 90.6019 619.58C94.9219 619.58 96.5419 617.36 96.5419 614.66C96.5419 611.54 94.2019 611.06 94.2019 609.74C94.2019 608.48 96.0619 606.92 98.8819 606.92C104.642 606.92 104.822 611.84 104.822 614.06V619.34C104.822 619.34 82.3219 623.18 82.3219 635.78C82.3219 644.48 91.4419 645.02 92.8219 645.02C96.9619 645.02 100.802 644.66 104.822 641.06C104.822 642.68 106.142 644 107.762 644H121.502V642.14C119.462 642.14 117.782 640.46 117.782 638.42V621.26ZM104.822 639.26C103.802 640.7 102.182 641.42 100.622 641.42C96.5419 641.42 95.5219 638.54 95.5219 635.06C95.5219 629.3 97.8619 624.14 104.822 621.14V639.26ZM165.499 617.84C165.499 612.44 164.719 604.28 154.219 604.28C147.139 604.28 142.879 611.3 142.819 611.9V605L142.639 605.06C136.939 606.26 131.119 606.86 125.299 606.86V608.72C127.819 608.72 129.859 610.76 129.859 613.28V637.52C129.859 640.1 127.819 642.14 125.299 642.14V644H147.439V642.14C144.919 642.14 142.819 640.1 142.819 637.58V614.72C143.539 612.44 145.459 609.98 148.219 609.98C152.179 609.98 152.539 614.12 152.539 615.5V637.52C152.539 640.1 150.499 642.14 147.979 642.14V644H170.119V642.14C167.539 642.14 165.499 640.1 165.499 637.58V617.84ZM230.999 605.12H230.819C225.119 606.32 219.299 606.98 213.479 606.98V608.78C216.059 608.78 218.099 610.88 218.099 613.4V637.58C218.099 640.1 216.059 642.14 213.479 642.14V644H235.619V642.14C233.039 642.14 230.999 640.1 230.999 637.58V605.12ZM213.419 586.4C219.659 586.4 223.199 588.5 225.119 590.9C224.939 590.84 224.759 590.84 224.579 590.84C220.979 590.84 218.099 593.72 218.099 597.32C218.099 600.86 220.979 603.8 224.579 603.8C228.119 603.8 230.999 600.86 230.999 597.32V596.6C230.639 591.08 225.959 584.72 214.079 584.72C197.699 584.72 192.119 600.8 191.459 605.06C182.039 605.24 174.479 612.44 174.479 621.26C174.479 626.96 177.539 631.88 182.219 634.82C178.859 635.18 173.999 636.5 173.999 641.42C173.999 644.18 175.619 645.68 178.019 646.4C176.519 647.78 174.839 650.72 174.839 653.66C174.839 657.68 177.959 661.64 188.879 661.64C201.659 661.64 210.299 653.72 210.299 645.56C210.299 639.02 206.339 637.22 201.299 637.22C195.299 637.22 187.799 639.86 184.079 639.86C182.639 639.86 181.739 639.44 181.739 638.36C181.739 636.86 182.639 636.02 183.659 635.6C186.119 636.8 188.819 637.52 191.759 637.52C201.359 637.52 209.099 630.26 209.099 621.26C209.099 615.02 205.319 609.56 199.739 606.86C199.139 605.12 198.779 603.14 198.779 601.1C198.779 594.02 202.799 586.4 213.419 586.4ZM188.159 646.82C191.759 646.58 195.479 646.1 198.539 646.1C202.559 646.1 205.379 646.94 205.379 650.3C205.379 653.78 200.759 659.6 191.759 659.6C186.659 659.6 185.039 657.32 185.039 654.56C185.039 651.68 186.839 648.32 188.159 646.82ZM198.119 634.04C197.939 634.16 197.699 634.22 197.459 634.22C195.119 634.22 191.039 629.6 187.859 623.18C185.579 618.56 184.319 614.18 184.319 611.36C184.319 609.8 184.679 608.72 185.459 608.36C185.639 608.24 185.879 608.24 186.119 608.24C188.459 608.24 192.539 612.86 195.719 619.28C197.999 623.9 199.259 628.34 199.259 631.16C199.259 632.66 198.899 633.68 198.119 634.04ZM279.52 617.84C279.52 612.44 278.74 604.28 268.24 604.28C261.16 604.28 256.9 611.3 256.84 611.9V605L256.66 605.06C250.96 606.26 245.14 606.86 239.32 606.86V608.72C241.84 608.72 243.88 610.76 243.88 613.28V637.52C243.88 640.1 241.84 642.14 239.32 642.14V644H261.46V642.14C258.94 642.14 256.84 640.1 256.84 637.58V614.72C257.56 612.44 259.48 609.98 262.24 609.98C266.2 609.98 266.56 614.12 266.56 615.5V637.52C266.56 640.1 264.52 642.14 262 642.14V644H284.14V642.14C281.56 642.14 279.52 640.1 279.52 637.58V617.84ZM322.985 627.02C324.605 627.02 325.985 625.64 325.985 624.02C325.685 613.46 317.105 605 306.485 605C295.745 605 286.985 613.7 286.985 624.5C286.985 625.34 287.045 626.18 287.165 627.02C288.425 636.56 296.585 644 306.485 644C315.185 644 321.245 640.4 324.245 634.28L323.525 633.92C323.525 633.92 321.665 636.86 316.985 638.6C315.665 639.08 314.345 639.32 313.025 639.32C307.085 639.32 301.205 634.7 298.805 627.02H322.985ZM298.145 625.16C297.425 622.7 297.125 620.18 297.125 617.78C297.125 612.74 298.685 608.42 302.045 607.34C302.885 607.1 303.665 606.92 304.385 606.92C311.465 606.92 314.465 618.32 314.465 623.9C314.465 624.38 314.465 624.8 314.405 625.16H298.145Z" fill="#550000"/>
<path d="M325.728 879.238C325.728 879.238 347.188 744.242 339.535 699.95C336.707 683.481 312.295 638.898 312.295 638.898" stroke="#550000" stroke-width="3" stroke-miterlimit="10"/>
<path d="M200.993 502.508C186.936 466.908 226.237 381.982 226.237 381.982C226.237 381.982 178.577 175.329 217.462 123.884C230.729 106.292 285.917 108.871 299.475 91.4452C310.204 77.6794 308.499 17.9999 308.499 17.9999" stroke="#550000" stroke-width="3" stroke-miterlimit="10"/>
<path d="M269.417 318.5C269.417 308 283.598 373.979 269.417 398.475C251.034 430.29 207.907 490.094 190.814 522.616C142.78 613.986 218.388 855.907 230.115 850.666" stroke="#550000" stroke-width="3" stroke-miterlimit="10"/>
<path d="M341.198 279.074C341.198 334.262 245.087 338.13 245.087 279.074" stroke="#550000" stroke-width="3" stroke-miterlimit="10"/>
<path d="M358 72.4628C333.838 52.7498 284.223 -1.89745 292.831 -36" stroke="#550000" stroke-width="3" stroke-miterlimit="10"/>
</svg>
