<svg width="83" height="81" viewBox="0 0 83 81" fill="none" xmlns="http://www.w3.org/2000/svg">
<path d="M41.5 79.1341C63.3153 79.1341 81 61.837 81 40.4999C81 19.1628 63.3153 1.86572 41.5 1.86572C19.6848 1.86572 2 19.1628 2 40.4999C2 61.837 19.6848 79.1341 41.5 79.1341Z" stroke="#FEFEFE" stroke-width="3" stroke-miterlimit="10"/>
<path d="M41.7752 70.6064C58.9639 70.6064 72.8981 56.9776 72.8981 40.1657C72.8981 23.3538 58.9639 9.7251 41.7752 9.7251C24.5865 9.7251 10.6523 23.3538 10.6523 40.1657C10.6523 56.9776 24.5865 70.6064 41.7752 70.6064Z" stroke="#FEFEFE" stroke-width="3" stroke-miterlimit="10"/>
<path d="M47.3093 36.9949L46.0025 39.8358H27.4798L28.5025 36.9949H47.3093ZM44.8661 42.6768L43.5593 45.5177H27.4798L28.5025 42.6768H44.8661ZM50.6616 29.3245L49.2979 32.279C48.6919 31.7298 48.0527 31.2563 47.3803 30.8586C46.708 30.4608 46.0025 30.1531 45.2638 29.9353C44.5252 29.7175 43.7487 29.6086 42.9343 29.6086C41.3245 29.6086 39.8756 30.0537 38.5877 30.9438C37.2998 31.834 36.2818 33.1455 35.5337 34.8785C34.7856 36.6114 34.4116 38.7374 34.4116 41.2563C34.4116 43.7752 34.7856 45.9012 35.5337 47.6341C36.2818 49.3671 37.2998 50.6787 38.5877 51.5688C39.8756 52.459 41.3245 52.904 42.9343 52.904C43.7676 52.904 44.5536 52.7951 45.2923 52.5773C46.0404 52.3595 46.7364 52.0612 47.3803 51.6824C48.0337 51.3037 48.6351 50.8775 49.1843 50.404L50.6048 53.3586C49.6104 54.2961 48.4457 55.0063 47.1104 55.4893C45.7752 55.9627 44.3832 56.1995 42.9343 56.1995C40.6048 56.1995 38.5404 55.5934 36.7411 54.3813C34.9513 53.1692 33.5451 51.4457 32.5224 49.2108C31.5091 46.976 31.0025 44.3245 31.0025 41.2563C31.0025 38.1881 31.5091 35.5366 32.5224 33.3018C33.5451 31.0669 34.9513 29.3434 36.7411 28.1313C38.5404 26.9192 40.6048 26.3131 42.9343 26.3131C44.44 26.3131 45.8462 26.5735 47.1531 27.0944C48.4693 27.6152 49.6388 28.3586 50.6616 29.3245Z" fill="#FEFEFE"/>
<path d="M47.3093 36.9949L48.672 37.6218L49.6504 35.4949H47.3093V36.9949ZM46.0025 39.8358V41.3358H46.9636L47.3652 40.4627L46.0025 39.8358ZM27.4798 39.8358L26.0684 39.3278L25.3455 41.3358H27.4798V39.8358ZM28.5025 36.9949V35.4949H27.4482L27.0912 36.4869L28.5025 36.9949ZM44.8661 42.6768L46.2289 43.3036L47.2072 41.1768H44.8661V42.6768ZM43.5593 45.5177V47.0177H44.5204L44.922 46.1445L43.5593 45.5177ZM27.4798 45.5177L26.0684 45.0096L25.3455 47.0177H27.4798V45.5177ZM28.5025 42.6768V41.1768H27.4482L27.0912 42.1687L28.5025 42.6768ZM50.6616 29.3245L52.0235 29.9531L52.4753 28.9742L51.6915 28.234L50.6616 29.3245ZM49.2979 32.279L48.2907 33.3905L49.804 34.762L50.6599 32.9076L49.2979 32.279ZM47.3803 30.8586L46.6166 32.1496L46.6166 32.1496L47.3803 30.8586ZM38.5877 30.9438L39.4406 32.1777L39.4406 32.1777L38.5877 30.9438ZM35.5337 34.8785L36.9109 35.473L36.9109 35.473L35.5337 34.8785ZM35.5337 47.6341L36.9109 47.0396L36.9109 47.0396L35.5337 47.6341ZM38.5877 51.5688L39.4406 50.3349L39.4406 50.3349L38.5877 51.5688ZM45.2923 52.5773L44.873 51.1371L44.868 51.1386L45.2923 52.5773ZM47.3803 51.6824L46.628 50.3847L46.6198 50.3895L47.3803 51.6824ZM49.1843 50.404L50.5362 49.7541L49.6878 47.9895L48.2049 49.2679L49.1843 50.404ZM50.6048 53.3586L51.6338 54.45L52.432 53.6974L51.9566 52.7086L50.6048 53.3586ZM47.1104 55.4893L47.6118 56.903L47.6206 56.8998L47.1104 55.4893ZM36.7411 54.3813L35.9 55.6233L35.903 55.6253L36.7411 54.3813ZM32.5224 49.2108L31.1562 49.8302L31.1584 49.835L32.5224 49.2108ZM32.5224 33.3018L31.1584 32.6776L31.1562 32.6824L32.5224 33.3018ZM36.7411 28.1313L35.903 26.8873L35.9 26.8893L36.7411 28.1313ZM47.1531 27.0944L46.5977 28.4878L46.6012 28.4892L47.1531 27.0944ZM45.9466 36.3681L44.6398 39.209L47.3652 40.4627L48.672 37.6218L45.9466 36.3681ZM46.0025 38.3358H27.4798V41.3358H46.0025V38.3358ZM28.8911 40.3439L29.9138 37.503L27.0912 36.4869L26.0684 39.3278L28.8911 40.3439ZM28.5025 38.4949H47.3093V35.4949H28.5025V38.4949ZM43.5034 42.0499L42.1966 44.8908L44.922 46.1445L46.2289 43.3036L43.5034 42.0499ZM43.5593 44.0177H27.4798V47.0177H43.5593V44.0177ZM28.8911 46.0257L29.9138 43.1848L27.0912 42.1687L26.0684 45.0096L28.8911 46.0257ZM28.5025 44.1768H44.8661V41.1768H28.5025V44.1768ZM49.2996 28.6959L47.936 31.6504L50.6599 32.9076L52.0235 29.9531L49.2996 28.6959ZM50.3052 31.1676C49.6277 30.5536 48.9074 30.0191 48.144 29.5675L46.6166 32.1496C47.198 32.4935 47.756 32.906 48.2907 33.3905L50.3052 31.1676ZM48.144 29.5675C47.3666 29.1077 46.5473 28.7499 45.6881 28.4965L44.8396 31.374C45.4577 31.5563 46.0493 31.814 46.6166 32.1496L48.144 29.5675ZM45.6881 28.4965C44.804 28.2358 43.884 28.1086 42.9343 28.1086V31.1086C43.6134 31.1086 44.2464 31.1991 44.8396 31.374L45.6881 28.4965ZM42.9343 28.1086C41.0289 28.1086 39.2808 28.6413 37.7348 29.7099L39.4406 32.1777C40.4704 31.466 41.62 31.1086 42.9343 31.1086V28.1086ZM37.7348 29.7099C36.1721 30.79 34.993 32.3464 34.1566 34.284L36.9109 35.473C37.5707 33.9446 38.4275 32.8779 39.4406 32.1777L37.7348 29.7099ZM34.1566 34.284C33.3052 36.2561 32.9116 38.5977 32.9116 41.2563H35.9116C35.9116 38.8771 36.2661 36.9667 36.9109 35.473L34.1566 34.284ZM32.9116 41.2563C32.9116 43.9149 33.3052 46.2565 34.1566 48.2287L36.9109 47.0396C36.2661 45.5459 35.9116 43.6355 35.9116 41.2563H32.9116ZM34.1566 48.2287C34.993 50.1662 36.1721 51.7226 37.7348 52.8027L39.4406 50.3349C38.4275 49.6347 37.5707 48.568 36.9109 47.0396L34.1566 48.2287ZM37.7348 52.8027C39.2808 53.8713 41.0289 54.404 42.9343 54.404V51.404C41.62 51.404 40.4704 51.0466 39.4406 50.3349L37.7348 52.8027ZM42.9343 54.404C43.8995 54.404 44.8293 54.2777 45.7165 54.0161L44.868 51.1386C44.278 51.3126 43.6358 51.404 42.9343 51.404V54.404ZM45.7116 54.0175C46.5739 53.7665 47.3852 53.4198 48.1409 52.9753L46.6198 50.3895C46.0876 50.7026 45.5068 50.9526 44.873 51.1371L45.7116 54.0175ZM48.1326 52.9801C48.8633 52.5566 49.5411 52.0769 50.1637 51.5401L48.2049 49.2679C47.729 49.6781 47.2042 50.0507 46.628 50.3847L48.1326 52.9801ZM47.8324 51.054L49.2529 54.0085L51.9566 52.7086L50.5362 49.7541L47.8324 51.054ZM49.5757 52.2672C48.7365 53.0584 47.7502 53.6627 46.6002 54.0787L47.6206 56.8998C49.1411 56.3499 50.4843 55.5337 51.6338 54.45L49.5757 52.2672ZM46.6091 54.0755C45.4385 54.4906 44.2163 54.6995 42.9343 54.6995V57.6995C44.55 57.6995 46.1119 57.4349 47.6118 56.903L46.6091 54.0755ZM42.9343 54.6995C40.8802 54.6995 39.1123 54.1701 37.5792 53.1373L35.903 55.6253C37.9684 57.0168 40.3293 57.6995 42.9343 57.6995V54.6995ZM37.5822 53.1393C36.05 52.1016 34.8107 50.6066 33.8863 48.5867L31.1584 49.835C32.2795 52.2848 33.8527 54.2368 35.9 55.6233L37.5822 53.1393ZM33.8885 48.5915C32.9827 46.5935 32.5025 44.1628 32.5025 41.2563H29.5025C29.5025 44.4862 30.0356 47.3585 31.1562 49.8302L33.8885 48.5915ZM32.5025 41.2563C32.5025 38.3498 32.9827 35.9191 33.8885 33.9212L31.1562 32.6824C30.0356 35.1541 29.5025 38.0264 29.5025 41.2563H32.5025ZM33.8863 33.9259C34.8107 31.906 36.05 30.411 37.5822 29.3733L35.9 26.8893C33.8527 28.2758 32.2795 30.2278 31.1584 32.6776L33.8863 33.9259ZM37.5792 29.3753C39.1123 28.3425 40.8802 27.8131 42.9343 27.8131V24.8131C40.3293 24.8131 37.9684 25.4958 35.903 26.8873L37.5792 29.3753ZM42.9343 27.8131C44.2633 27.8131 45.4797 28.0422 46.5977 28.4878L47.7084 25.701C46.2128 25.1049 44.6167 24.8131 42.9343 24.8131V27.8131ZM46.6012 28.4892C47.7414 28.9403 48.7484 29.5808 49.6316 30.415L51.6915 28.234C50.5293 27.1363 49.1973 26.2901 47.7049 25.6996L46.6012 28.4892Z" fill="#FEFEFE"/>
</svg>
