<svg width="140" height="87" viewBox="0 0 140 87" fill="none" xmlns="http://www.w3.org/2000/svg">
<path d="M21.401 69.9172C24.2216 71.3124 27.9615 63.669 30.6078 69.2387C32.1911 72.5748 32.8325 77.341 48.8657 76.6909C55.2349 76.4314 65.2156 80.104 67.0665 76.1418C67.6805 74.8199 66.4953 73.7457 67.4333 71.3988C68.6859 68.2601 69.1002 69.273 70.0829 67.0348C70.9987 64.9371 69.1407 62.5718 71.8785 58.8052C73.8584 56.0824 73.0664 56.8259 72.9744 54.8902C72.8657 52.4753 71.7583 51.7685 70.0346 48.8858C66.1836 42.4303 69.8053 41.2134 67.3321 39.0999C63.0936 35.4771 54.5467 38.3985 51.8874 35.6524C48.2743 31.9153 57.5051 17.9269 52.9503 12.3906C51.4958 10.623 48.2936 8.19581 46.5573 8.74365C42.7428 9.92207 45.774 16.6484 41.4585 22.1512C37.6723 26.9805 34.5189 25.2497 31.5075 30.5428C29.4622 34.1472 30.4125 35.8569 28.3738 37.8386C24.8772 41.25 20.4819 37.7868 17.2132 40.0358C10.9442 44.3422 13.7634 66.1414 21.408 69.93L21.401 69.9172Z" stroke="#FEFEFE" stroke-width="3" stroke-miterlimit="10"/>
<path d="M123.975 15.3122C121.087 14.2814 117.186 21.8368 114.516 16.8733C112.919 13.9011 112.303 9.48799 95.8281 11.6996C89.2877 12.5802 79.0751 10.1385 77.1299 14.0412C76.4848 15.3422 77.6956 16.2328 76.7031 18.5345C75.3831 21.6066 74.9663 20.696 73.944 22.8976C72.9813 24.959 74.867 26.9905 72.0186 30.8032C69.9543 33.5652 70.778 32.7846 70.8574 34.5859C70.9468 36.8375 72.0782 37.3879 73.8249 39.9297C77.7254 45.6038 73.9937 47.1049 76.5146 48.8461C80.8418 51.8282 89.645 48.2257 92.3545 50.5373C96.0266 53.6796 86.4294 67.7496 91.0444 72.483C92.5232 74.0041 95.7984 75.9555 97.5848 75.275C101.515 73.7839 98.4681 67.7796 102.944 62.1756C106.874 57.2621 110.1 58.5731 113.246 53.2993C115.38 49.7067 114.417 48.2057 116.541 46.1342C120.164 42.5816 124.64 45.3936 128.024 42.9519C134.505 38.2786 131.795 18.1041 123.985 15.3122H123.975Z" stroke="#FEFEFE" stroke-width="3" stroke-miterlimit="10"/>
</svg>
