<svg width="608" height="813" viewBox="0 0 608 813" fill="none" xmlns="http://www.w3.org/2000/svg">
<g filter="url(#filter0_i_610_1109)">
<path d="M127.479 135.113C136.846 152.357 170.733 104.874 157.374 92.0529C134.294 69.9355 98.0457 -2.84427 77.6814 1.9939C62.4761 5.58796 58.9463 20.3789 59.0006 24.1803C59.7066 63.7842 105.648 94.9558 127.479 135.113Z" stroke="#1D1D1B" stroke-width="3" stroke-miterlimit="10"/>
<path d="M150.12 125.989C150.12 131.587 162.964 135.112 160.438 144.063C151.858 174.474 85.0362 131.587 65.215 151.769C58.1825 158.923 55.8474 177.93 66.464 178.725C146.048 184.669 135.811 164.971 160.438 173.161C165.434 174.82 177.544 186.57 174.775 192.133C169.29 203.261 144.88 200.911 133.693 197.179" stroke="#1D1D1B" stroke-width="3" stroke-miterlimit="10"/>
<path d="M143.471 133.453C143.471 133.453 81.4277 57.909 63.9688 25.2168" stroke="#1D1D1B" stroke-width="3" stroke-miterlimit="10"/>
<path d="M151.156 122.43C151.156 122.43 90.7415 51.896 69.5898 19.4111" stroke="#1D1D1B" stroke-width="3" stroke-miterlimit="10"/>
<path d="M158.593 110.196C158.593 110.196 110.371 40.0078 77.0547 13.0869" stroke="#1D1D1B" stroke-width="3" stroke-miterlimit="10"/>
<path d="M471.893 454.058C509.871 503.035 515.901 443.805 529.119 437.839C537.832 433.914 535.31 439.687 540.331 443.003C543.226 444.886 566.972 417.438 571.882 409.15C575.548 402.912 579.661 391.432 572.897 384.919C564.932 377.22 603.946 360.571 575.523 323.917C552.459 294.173 533.721 330.472 526.84 329.404C518.768 328.154 522.797 320.311 516.306 322.859C504.132 327.6 487.133 355.401 483.836 363.693C481.381 369.823 490.175 372.771 487.821 379.437C478.854 404.873 435.112 406.67 471.893 454.103L471.893 454.058Z" stroke="#1D1D1B" stroke-width="3" stroke-miterlimit="10"/>
<path d="M485.1 404.929C476.361 417.494 461.754 430.333 475.918 448.779C485.874 461.754 496.854 455.367 500.164 451.209C522.075 423.684 569.886 364.944 571.979 351.602C574.647 334.451 566.925 324.313 554.939 325.482C544.881 326.479 506.692 373.836 485.118 404.906L485.1 404.929Z" stroke="#1D1D1B" stroke-width="3" stroke-miterlimit="10"/>
<path d="M207.491 550.153C198.277 543.515 180.661 525.705 191.014 522.76C228.635 512.056 255.722 467.099 267.624 435.105C271.82 423.827 283.922 429.586 292.7 435.076C303.103 441.583 319.371 461.774 308.514 467.038C267.587 486.883 261.627 515.063 232.564 554.692C225.802 563.912 216.091 556.347 207.491 550.153Z" stroke="#1D1D1B" stroke-width="3" stroke-miterlimit="10"/>
<g clip-path="url(#clip0_610_1109)">
<path d="M399.863 146.286C390.239 137.901 426.51 114.331 418.253 108.299C391.785 88.9515 415.432 40.0518 421.17 25.1223C421.762 23.554 416.509 18.4421 418.359 14.931C419.572 12.6415 422.608 11.7568 423.78 11.856C428.735 12.2972 505.652 58.7235 505.652 58.7235C505.497 60.0835 507.796 67.9216 500.585 68.7792C497.242 69.1686 493.394 67.0487 492.971 68.1763C490.665 74.4316 463.261 115.286 428.347 116.467C419.717 116.764 424.911 133.983 407.862 147.294C404.572 149.857 400.043 146.441 399.863 146.286V146.286Z" stroke="#1D1D1B" stroke-width="3" stroke-miterlimit="10"/>
<path d="M431.351 104.629C434.543 102.332 457.245 103.633 463.511 87.7686" stroke="#1D1D1B" stroke-width="3" stroke-miterlimit="10"/>
</g>
<path d="M408.899 232.177C411.938 230.737 413.101 249.005 413.101 249.005C413.101 249.005 355.212 306.381 341.076 347.408C338.73 354.184 319.576 351.897 318.618 346.109C312.09 306.635 248 251.603 248 251.603C248 251.603 250.285 223.367 253.609 227.659C274.191 254.201 366.798 252.252 408.899 232.205V232.177Z" stroke="#1D1D1B" stroke-width="3" stroke-miterlimit="10"/>
<path d="M169.173 647.243C169.256 644.308 162.922 637.838 160.978 629.104C156.116 607.112 160.033 591.838 158.255 585.085C157.338 581.655 148.171 584.307 148.171 584.307C147.56 597.035 150.671 629.104 150.671 629.104L106.39 629.882C106.39 629.882 113.001 590.141 108.807 582.362C108.807 582.362 101.362 580.135 99.6947 583.529C96.4167 590.247 103.056 605.733 95.4444 629.458C90.8329 643.813 89.2216 638.651 88.7772 647.207C87.4159 672.841 94.9721 734.575 84.5268 755.33C79.7486 764.841 108.807 750.698 117.891 807.058C118.53 811.018 137.809 812.149 138.226 809.391C146.949 748.718 180.646 765.477 174.312 754.552C161.561 732.56 168.256 677.332 169.145 647.207L169.173 647.243Z" stroke="#1D1D1B" stroke-width="3" stroke-miterlimit="10"/>
<path d="M536.168 641.819C536.168 669.649 510.772 729.801 477.774 729.801C444.776 729.801 399.656 684.477 390.359 659.314C375.955 620.341 409.777 586.041 455.579 595.956C488.13 602.996 536.192 614.02 536.192 641.819H536.168Z" stroke="#1D1D1B" stroke-width="3" stroke-miterlimit="10"/>
<path d="M479.631 699.516C483.531 699.516 486.692 694.218 486.692 687.683C486.692 681.148 483.531 675.85 479.631 675.85C475.732 675.85 472.57 681.148 472.57 687.683C472.57 694.218 475.732 699.516 479.631 699.516Z" stroke="#1D1D1B" stroke-width="3" stroke-miterlimit="10"/>
<path d="M508.98 675.88C513.49 675.88 517.147 673.761 517.147 671.147C517.147 668.533 513.49 666.414 508.98 666.414C504.469 666.414 500.812 668.533 500.812 671.147C500.812 673.761 504.469 675.88 508.98 675.88Z" stroke="#1D1D1B" stroke-width="3" stroke-miterlimit="10"/>
<path d="M424.06 666.414C426.829 666.414 429.073 662.068 429.073 656.708C429.073 651.347 426.829 647.002 424.06 647.002C421.291 647.002 419.047 651.347 419.047 656.708C419.047 662.068 421.291 666.414 424.06 666.414Z" stroke="#1D1D1B" stroke-width="3" stroke-miterlimit="10"/>
<path d="M425.002 699.546C428.29 699.546 430.956 696.152 430.956 691.967C430.956 687.781 428.29 684.388 425.002 684.388C421.713 684.388 419.047 687.781 419.047 691.967C419.047 696.152 421.713 699.546 425.002 699.546Z" stroke="#1D1D1B" stroke-width="3" stroke-miterlimit="10"/>
<path d="M480.81 628.579C484.06 628.579 486.694 625.937 486.694 622.678C486.694 619.419 484.06 616.776 480.81 616.776C477.56 616.776 474.926 619.419 474.926 622.678C474.926 625.937 477.56 628.579 480.81 628.579Z" stroke="#1D1D1B" stroke-width="3" stroke-miterlimit="10"/>
<path d="M419.05 621.719C425.108 621.719 430.018 620.337 430.018 618.633C430.018 616.929 425.108 615.548 419.05 615.548C412.993 615.548 408.082 616.929 408.082 618.633C408.082 620.337 412.993 621.719 419.05 621.719Z" stroke="#1D1D1B" stroke-width="3" stroke-miterlimit="10"/>
<path d="M527.648 649.848C529.091 649.848 530.26 646.146 530.26 641.58C530.26 637.014 529.091 633.312 527.648 633.312C526.205 633.312 525.035 637.014 525.035 641.58C525.035 646.146 526.205 649.848 527.648 649.848Z" stroke="#1D1D1B" stroke-width="3" stroke-miterlimit="10"/>
<path d="M458.089 649.987C459.651 647.998 460.083 645.324 459.054 644.014C458.024 642.703 455.923 643.253 454.361 645.242C452.798 647.231 452.366 649.905 453.395 651.216C454.425 652.526 456.526 651.976 458.089 649.987Z" stroke="#1D1D1B" stroke-width="3" stroke-miterlimit="10"/>
<path d="M511.62 623.726C513.076 623.726 514.257 621.446 514.257 618.633C514.257 615.821 513.076 613.541 511.62 613.541C510.165 613.541 508.984 615.821 508.984 618.633C508.984 621.446 510.165 623.726 511.62 623.726Z" stroke="#1D1D1B" stroke-width="3" stroke-miterlimit="10"/>
<path d="M396.546 638.404C398.002 638.404 399.182 636.124 399.182 633.312C399.182 630.499 398.002 628.219 396.546 628.219C395.09 628.219 393.91 630.499 393.91 633.312C393.91 636.124 395.09 638.404 396.546 638.404Z" stroke="#1D1D1B" stroke-width="3" stroke-miterlimit="10"/>
<path d="M484.08 721.419C485.28 719.057 485.261 716.327 484.039 715.321C482.816 714.315 480.852 715.414 479.653 717.776C478.453 720.138 478.472 722.868 479.694 723.874C480.917 724.88 482.881 723.781 484.08 721.419Z" stroke="#1D1D1B" stroke-width="3" stroke-miterlimit="10"/>
<path d="M447.955 615.458C451.243 615.458 453.91 612.065 453.91 607.879C453.91 603.693 451.243 600.3 447.955 600.3C444.666 600.3 442 603.693 442 607.879C442 612.065 444.666 615.458 447.955 615.458Z" stroke="#1D1D1B" stroke-width="3" stroke-miterlimit="10"/>
<path d="M487.166 664.647C489.934 664.647 492.179 660.301 492.179 654.941C492.179 649.58 489.934 645.235 487.166 645.235C484.397 645.235 482.152 649.58 482.152 654.941C482.152 660.301 484.397 664.647 487.166 664.647Z" stroke="#1D1D1B" stroke-width="3" stroke-miterlimit="10"/>
<path d="M449.245 682.86C453.756 682.86 457.413 680.741 457.413 678.127C457.413 675.513 453.756 673.394 449.245 673.394C444.735 673.394 441.078 675.513 441.078 678.127C441.078 680.741 444.735 682.86 449.245 682.86Z" stroke="#1D1D1B" stroke-width="3" stroke-miterlimit="10"/>
<path d="M31.8932 434.134C69.8708 483.111 75.901 423.881 89.1194 417.916C97.8318 413.99 95.3102 419.763 100.331 423.079C103.226 424.962 126.972 397.514 131.882 389.227C135.548 382.989 139.661 371.508 132.897 364.995C124.932 357.297 163.946 340.647 135.523 303.993C112.459 274.25 93.721 310.548 86.8397 309.48C78.7677 308.23 82.7974 300.387 76.3059 302.935C64.1325 307.676 47.1329 335.478 43.8358 343.77C41.3812 349.899 50.1751 352.847 47.8211 359.513C38.8543 384.949 -4.88821 386.746 31.8928 434.179L31.8932 434.134Z" stroke="#1D1D1B" stroke-width="3" stroke-miterlimit="10"/>
<path d="M45.0999 385.005C36.3606 397.571 21.7536 410.41 35.9175 428.856C45.8738 441.83 56.8538 435.443 60.1635 431.286C82.0748 403.76 129.886 345.02 131.979 331.678C134.647 314.527 126.925 304.389 114.939 305.559C104.881 306.555 66.6916 353.913 45.1176 384.983L45.0999 385.005Z" stroke="#1D1D1B" stroke-width="3" stroke-miterlimit="10"/>
<ellipse cx="75.2694" cy="320.593" rx="6.60141" ry="5.28113" fill="black"/>
<ellipse cx="59.4256" cy="335.116" rx="6.60141" ry="5.28113" fill="black"/>
<ellipse cx="106.957" cy="382.646" rx="6.60141" ry="5.28113" fill="black"/>
<ellipse cx="120.16" cy="368.123" rx="6.60141" ry="5.28113" fill="black"/>
</g>
<defs>
<filter id="filter0_i_610_1109" x="16.0859" y="0.263184" width="571.277" height="816.146" filterUnits="userSpaceOnUse" color-interpolation-filters="sRGB">
<feFlood flood-opacity="0" result="BackgroundImageFix"/>
<feBlend mode="normal" in="SourceGraphic" in2="BackgroundImageFix" result="shape"/>
<feColorMatrix in="SourceAlpha" type="matrix" values="0 0 0 0 0 0 0 0 0 0 0 0 0 0 0 0 0 0 127 0" result="hardAlpha"/>
<feOffset dy="4"/>
<feGaussianBlur stdDeviation="14"/>
<feComposite in2="hardAlpha" operator="arithmetic" k2="-1" k3="1"/>
<feColorMatrix type="matrix" values="0 0 0 0 0 0 0 0 0 0 0 0 0 0 0 0 0 0 0.25 0"/>
<feBlend mode="normal" in2="shape" result="effect1_innerShadow_610_1109"/>
</filter>
<clipPath id="clip0_610_1109">
<rect width="102.982" height="132.028" fill="white" transform="translate(420.938 8) rotate(29.4629)"/>
</clipPath>
</defs>
</svg>
