<?xml version="1.0" encoding="iso-8859-1"?>
<!-- Generator: Adobe Illustrator 16.0.0, SVG Export Plug-In . SVG Version: 6.00 Build 0)  -->
<!DOCTYPE svg PUBLIC "-//W3C//DTD SVG 1.1//EN" "http://www.w3.org/Graphics/SVG/1.1/DTD/svg11.dtd">
<svg version="1.1" id="Capa_1" xmlns="http://www.w3.org/2000/svg" xmlns:xlink="http://www.w3.org/1999/xlink" x="0px" y="0px"
	 width="611.998px" height="611.998px" viewBox="0 0 611.998 611.998" style="enable-background:new 0 0 611.998 611.998;"
	 xml:space="preserve">
<g>
	<g id="behance">
		<g>
			<path d="M194.016,310.626H92.89c-7.309,0-13.242,5.934-13.242,13.242v92.85c0,7.311,5.933,13.242,13.242,13.242h89.553
				l3.933,0.027l2.82-0.041c34.746-0.781,54.675-22.061,54.675-58.381C243.884,323.366,211.296,310.626,194.016,310.626z
				 M188.653,403.478h-82.521V337.11h87.858c3.906,0.066,23.398,2.064,23.398,34.467C217.4,399.054,203.563,403.159,188.653,403.478
				z M92.89,283.561h94.863c29.661,0,44.082-17.876,44.082-54.622c0-39.062-24.735-49.378-37.818-49.378H92.89
				c-7.309,0-13.242,5.932-13.242,13.242v77.516C79.648,277.642,85.581,283.561,92.89,283.561z M106.131,206.045h87.884
				c0.12,0,11.335,0.251,11.335,22.895c0,28.138-8.157,28.138-17.598,28.138h-81.621V206.045z M278.96,286.779
				c14.619-12.103,26.603-32.031,26.603-63.229c0-64.249-43.79-105.748-111.547-105.748H13.242C5.932,117.803,0,123.735,0,131.044
				v347.394c0,7.309,5.932,13.24,13.242,13.24h180.351c0.146,0,1.509,0.027,1.642,0.027l0,0c8.21,0,37.169-1.125,65.109-15.428
				c26.126-13.373,57.257-41.656,57.23-99.615c0.105-2.014,2.437-49.748-24.974-78.748
				C288.481,293.532,283.926,289.824,278.96,286.779z M291.13,375.921c0,36.389-14.407,62.223-42.837,76.775
				c-23.252,11.918-48.266,12.514-53.046,12.514l0,0l-1.231-0.014H26.483v-320.91h167.532c53.271,0,85.064,29.634,85.064,79.264
				c0,47.855-36.68,52.542-40.758,52.913c-7.111,0.53-12.513,6.581-12.249,13.692c0.265,7.124,6.118,12.752,13.242,12.752
				c14.486,0,25.609,4.291,34.004,13.123C292.891,336.659,291.169,374.821,291.13,375.921z M610.914,359.29
				c0.41-3.111,9.494-77.013-33.104-125.557c-23.411-26.668-57.376-40.202-100.954-40.202c-75.769,0-111.799,40.281-128.682,74.061
				c-17.863,35.766-18.035,71.173-18.009,71.823c-0.186,2.912-3.986,71.822,39.884,118.551
				c25.503,27.158,61.401,40.943,105.945,40.943h0.106c0,0,2.013,0.119,5.548,0.119c61.561,0,127.345-27.768,127.345-105.707
				c0-7.311-5.933-13.242-13.241-13.242H534.59c-3.549,0-6.938,1.535-9.429,4.053c-2.489,2.527-3.853,6.064-3.8,9.6
				c0.014,0.357,0.053,8.699-6.303,15.162c-6.674,6.793-18.34,9.744-35.236,8.566c-21.451-1.496-44.2-6.674-48.199-46.65h166.155
				C604.426,370.823,610.04,365.897,610.914,359.29z M585.385,344.341H417.759c-7.31,0-13.241,5.932-13.241,13.24
				c0,81.197,55.297,85.051,73.464,86.322c25.928,1.814,44.108-3.998,56.449-16.922c6.436-6.74,9.799-14.17,11.547-20.393h35.686
				c-3.35,24.854-16.618,42.506-40.307,53.734c-23.318,11.057-49.523,12.248-59.707,12.248c-2.423,0-3.88-0.066-4.793-0.092
				c-37.659,0-67.056-10.926-87.382-32.482c-36.03-38.242-32.905-98.305-32.852-99.695c0.026-4.912,1.774-120.261,120.233-120.261
				c35.554,0,62.792,10.461,80.959,31.078C583.649,280.449,585.928,323.829,585.385,344.341z M478.221,244.432
				c-51.563,0-71.121,42.492-74.26,64.963c-0.529,3.801,0.609,7.627,3.125,10.514c2.517,2.887,6.158,4.555,9.984,4.555h114.116
				c7.243,0,13.149-5.826,13.241-13.068c0.014-1.191,0.159-29.529-19.174-49.101C513.575,250.431,497.738,244.432,478.221,244.432z
				 M434.96,297.981c5.721-12.103,17.916-27.065,43.26-27.065c12.275,0,21.452,3.231,28.072,9.852
				c5.099,5.098,7.959,11.573,9.574,17.214H434.96L434.96,297.981z M402.121,182.236h143.326c7.31,0,13.242-5.932,13.242-13.242
				v-42.783c0-7.31-5.933-13.242-13.242-13.242H402.121c-7.31,0-13.242,5.932-13.242,13.242v42.783
				C388.879,176.304,394.812,182.236,402.121,182.236z M415.362,139.453h116.844v16.301H415.362V139.453z"/>
		</g>
	</g>
</g>
<g>
</g>
<g>
</g>
<g>
</g>
<g>
</g>
<g>
</g>
<g>
</g>
<g>
</g>
<g>
</g>
<g>
</g>
<g>
</g>
<g>
</g>
<g>
</g>
<g>
</g>
<g>
</g>
<g>
</g>
</svg>
