<svg width="1638" height="1135" viewBox="0 0 1638 1135" fill="none" xmlns="http://www.w3.org/2000/svg">
<path d="M593.619 592.593C598.958 590.099 601 621.737 601 621.737C601 621.737 499.317 721.1 474.488 792.151C470.367 803.887 436.724 799.926 435.04 789.902C423.575 721.54 311 626.236 311 626.236C311 626.236 315.013 577.336 320.853 584.769C357.004 630.734 519.668 627.36 593.619 592.642V592.593Z" stroke="#1D1D1B" stroke-width="3" stroke-miterlimit="10"/>
<rect x="1.5" y="68.5" width="957" height="1065" stroke="black" stroke-width="3"/>
<circle cx="456" cy="663" r="268.5" stroke="black" stroke-width="3"/>
<circle cx="456" cy="663" r="187.5" stroke="black" stroke-width="3"/>
<circle cx="480" cy="125" r="34.5" stroke="black" stroke-width="3"/>
<rect x="1.5" y="68.5" width="957" height="113" stroke="black" stroke-width="3"/>
<rect x="1.5" y="68.5" width="233" height="113" stroke="black" stroke-width="3"/>
<rect x="663.5" y="90.5" width="61" height="55" stroke="black" stroke-width="3"/>
<rect x="663.5" y="635.5" width="61" height="55" stroke="black" stroke-width="3"/>
<rect x="774.5" y="90.5" width="61" height="55" stroke="black" stroke-width="3"/>
<rect x="873.5" y="90.5" width="61" height="55" stroke="black" stroke-width="3"/>
<rect x="1.5" y="1044.5" width="957" height="89" stroke="black" stroke-width="3"/>
<path d="M1228.66 504.513L1112.98 408.541C1112.98 408.541 1136.55 386.384 1148.48 369.744C1185.43 318.192 1162.98 247.17 1205.93 200.233C1254.35 147.328 1307.65 140.955 1378.47 185.15C1460.27 236.187 1474.36 320.545 1421.1 378.74C1378.83 424.929 1311.47 424.004 1264.16 465.716C1248.65 479.398 1228.66 504.513 1228.66 504.513Z" stroke="black" stroke-width="3"/>
<path d="M1144.46 379L1255.52 471.037" stroke="black" stroke-width="3"/>
<path d="M1408.51 272.054C1408.51 272.054 1392.67 382.89 1319.02 405.468" stroke="black" stroke-width="3"/>
<path d="M1128.29 395.291L1239.26 487.884" stroke="black" stroke-width="3"/>
<line y1="-1.5" x2="88.814" y2="-1.5" transform="matrix(0.78966 -0.613544 0.658048 0.752976 1412.69 171.469)" stroke="black" stroke-width="3"/>
<line y1="-1.5" x2="88.814" y2="-1.5" transform="matrix(0.78966 -0.613544 0.658048 0.752976 1466.67 226.843)" stroke="black" stroke-width="3"/>
<line y1="-1.5" x2="100.234" y2="-1.5" transform="matrix(0.997182 0.0750211 -0.0529378 0.998598 1481.56 278.231)" stroke="black" stroke-width="3"/>
<line y1="-1.5" x2="94.6478" y2="-1.5" transform="matrix(0.391829 -0.920038 0.926595 0.376062 1348.28 147.347)" stroke="black" stroke-width="3"/>
<line y1="-1.5" x2="94.9261" y2="-1.5" transform="matrix(-0.0242523 -0.999706 0.999983 0.00586323 1267.16 126.516)" stroke="black" stroke-width="3"/>
<line x1="1458.31" y1="368.871" x2="1568.2" y2="397.061" stroke="black" stroke-width="3"/>
<path d="M1113.73 408.112C1113.73 408.112 1103.95 459.803 1117.17 482.234C1130.4 504.666 1144.5 508.949 1163.84 516.101C1188.35 525.162 1227.77 504.564 1227.77 504.564" stroke="black" stroke-width="3"/>
</svg>
